<svg viewBox="0 0 513 513" fill="none" xmlns="http://www.w3.org/2000/svg">
<path d="M507.163 242.395L449.561 184.801C445.822 181.063 443.722 175.989 443.722 170.707V89.2228C443.722 78.2076 434.792 69.279 423.778 69.279H342.296C337.014 69.279 331.938 67.1785 328.2 63.4395L270.605 5.83708C262.813 -1.94569 250.188 -1.94569 242.395 5.83708L184.801 63.4395C181.063 67.1785 175.988 69.279 170.707 69.279H89.2239C78.2086 69.279 69.2801 78.2076 69.2801 89.2228V170.706C69.2801 175.988 67.1796 181.064 63.4406 184.8L5.83707 242.395C-1.94569 250.188 -1.94569 262.812 5.83707 270.604L63.4406 328.198C67.1796 331.935 69.2801 337.011 69.2801 342.293V423.776C69.2801 434.79 78.2097 443.719 89.2239 443.719H170.707C175.989 443.719 181.065 445.821 184.801 449.56L242.395 507.162C250.188 514.945 262.813 514.945 270.605 507.162L328.199 449.56C331.937 445.821 337.013 443.719 342.295 443.719H423.777C434.792 443.719 443.72 434.79 443.72 423.776V342.293C443.72 337.011 445.821 331.935 449.56 328.198L507.162 270.604C514.946 262.812 514.946 250.188 507.163 242.395ZM256.502 383.726C186.232 383.726 129.275 326.77 129.275 256.5C129.275 186.23 186.232 129.273 256.502 129.273C326.771 129.273 383.728 186.229 383.728 256.5C383.727 326.77 326.771 383.726 256.502 383.726Z" fill="#F74C00"/>
</svg>
