<svg xmlns="http://www.w3.org/2000/svg" viewBox="0 0 512 512"><path d="M493.6 163c-24.88-19.62-45.5-35.37-164.3-121.6C312.7 29.21 279.7 0 256.4 0h-.8c-23.3 0-56.3 29.21-73 41.38C63.88 127.6 43.25 143.4 18.38 163 6.75 172 0 186 0 200.8V464c0 26.5 21.49 48 48 48h416c26.51 0 48-21.49 48-47.1V200.8c0-14.8-6.7-28.8-18.4-37.8zM480 464c0 8.822-7.178 16-16 16H48c-8.82 0-16-7.2-16-16V200.8c0-4.902 2.23-9.555 6.195-12.63C61.59 169.7 80.71 154.1 201.5 67.21c2.98-2.178 6.451-4.861 10.28-7.826 9.365-7.254 34.18-26.48 44.62-27.37 9.686.955 34.44 20.13 43.79 27.37 3.828 2.965 7.299 5.648 10.36 7.887 120.7 87.68 139.8 102.4 163.5 121C477.8 191.2 480 195.8 480 200.8V464zm-57.5-204.9l-132.8 97.72c-19.78 14.62-47.64 14.62-67.45 0L89.48 259.1c-7.1-5.3-17.15-3.7-22.37 3.4-5.23 7.1-3.7 17.2 3.41 22.4l132.8 97.72C218.7 393.1 236.9 399.1 256 399.1s37.3-6.023 52.7-17.4l132.8-97.72c7.109-5.219 8.641-15.25 3.406-22.34-5.306-6.24-15.206-7.84-22.406-2.54z"/></svg>