<svg xmlns="http://www.w3.org/2000/svg" viewBox="0 0 384 512"><!--! Font Awesome Pro 6.2.0 by @fontawesome - https://fontawesome.com License - https://fontawesome.com/license (Commercial License) Copyright 2022 Fonticons, Inc.--><path d="M384 448c0 35.3-28.7 64-64 64H64c-35.35 0-64-28.7-64-64h32c0 17.7 14.33 32 32 32h256c17.7 0 32-14.3 32-32h32zM240 192c-26.5 0-48-21.5-48-48V32H64c-17.67 0-32 14.33-32 32v160H0V64C0 28.65 28.65 0 64 0h156.1c12.7 0 25 5.057 34 14.06L369.9 129.9c9 9 14.1 21.3 14.1 34V224h-32v-32H240zm107.3-39.4L231.4 36.69c-2-2.07-4.6-3.51-7.4-4.21V144c0 8.8 7.2 16 16 16h111.5c-.7-2.8-2.1-5.4-4.2-7.4zM88 256c30.9 0 56 25.1 56 56s-25.1 56-56 56h-8v32c0 8.8-7.16 16-16 16s-16-7.2-16-16V272c0-8.8 7.16-16 16-16h24zm24 56c0-13.3-10.7-24-24-24h-8v48h8c13.3 0 24-10.7 24-24zm48-40c0-8.8 7.2-16 16-16h24c26.5 0 48 21.5 48 48v64c0 26.5-21.5 48-48 48h-24c-8.8 0-16-7.2-16-16V272zm32 112h8c8.8 0 16-7.2 16-16v-64c0-8.8-7.2-16-16-16h-8v96zm144-128c8.8 0 16 7.2 16 16s-7.2 16-16 16h-32v32h32c8.8 0 16 7.2 16 16s-7.2 16-16 16h-32v48c0 8.8-7.2 16-16 16s-16-7.2-16-16V272c0-8.8 7.2-16 16-16h48z"/></svg>