<svg version="1.0" width="675.756" height="449.833" viewBox="0 0 506.817 337.375" xmlns="http://www.w3.org/2000/svg"><g transform="matrix(.1 0 0 -.1 -488.832 368.655)"><path d="M8492.483 3685.798c-188-11-456-66-523-109-17-11-15-13 20-24 21-6 47-15 58-20s56-20 100-35c44-14 89-30 99-37 45-25 195-69 258-75 71-6 104-26 93-56-6-14-227-213-341-306-46-37-54-49-54-78v-33h119c215 0 420-29 556-77 234-84 361-296 341-567l-7-88 41 32c77 61 165 200 190 301 26 101 29 129 29 229 1 199-53 364-176 541-150 217-419 372-683 395-30 3-59 6-65 7-5 1-30 1-55 0zm-2330-18c-140-26-214-57-355-148-105-68-136-96-215-193-99-121-166-265-201-429-20-99-16-267 10-359 33-121 101-244 169-308l57-53 7 140c5 106 13 157 30 210 25 72 92 171 150 220 45 38 151 89 238 114 85 25 344 50 518 51 106 0 112 1 103 18-13 25-158 165-261 253-108 92-160 145-160 164 0 20 26 31 90 38 53 6 111 24 261 80 37 14 107 35 155 47 122 30 124 30 124 41 0 28-203 95-357 118-92 14-279 12-363-4z" fill="#d40000"/><path d="M7240.217 2951.584c-44-5-108-13-142-19-35-6-90-16-122-21-164-28-533-177-671-271-14-9-52-34-85-55-133-85-340-277-394-367-24-40-22-63 6-74 10-3 30-14 44-24s68-37 120-61l94-43 1310-3c958-2 1325 0 1365 8 57 12 251 108 284 140 19 19 19 20 0 56-25 48-155 186-229 244-32 25-74 59-94 76-78 68-329 210-451 256-30 11-59 24-65 28-34 24-258 82-425 111-140 24-410 33-545 19zm-306-374c42-22 65-64 64-117-1-81-40-131-113-148-37-8-52-7-86 8-67 30-114 138-88 206 4 9 23 27 43 40 42 29 134 34 180 11z" fill="#a00"/><path d="M6768.483 2536.798c-37-36-5-144 49-164 30-12 52-5 88 28 34 33 38 101 7 132-26 26-120 28-144 4z"/><path d="M5048.483 2306.798c-32-237 65-566 209-711 62-62 97-78 203-97l32-5v197l-35 22c-120 74-309 366-380 588-9 28-18 52-19 52-2 0-6-21-10-46zm4701-42c-42-131-115-273-188-362-20-25-48-64-64-87-15-24-55-60-90-84l-64-42 5-81c2-44 9-85 15-91 16-16 108-8 138 12 14 10 35 22 46 28 65 34 175 224 219 380 23 79 26 107 26 252 0 90-3 163-7 163-5 0-21-40-36-88z" fill="#a00"/><path d="M5654.483 1248.798c-2-653 0-906 8-911 9-6 184 103 200 124 8 11 419 316 563 419 18 12 68 50 112 83s127 94 185 135c58 40 138 98 179 126 41 29 117 85 170 124 53 38 111 79 128 90 18 10 71 43 118 73 99 61 113 62 193 9 27-18 89-59 138-92 49-32 105-72 124-88s114-85 210-152 214-151 262-187c49-35 119-86 157-114 37-27 90-66 116-85s87-64 134-99 105-77 129-92c43-27 117-85 205-159 23-20 68-53 100-75 100-68 92-150 95 879 2 849 1 896-15 896-10 0-31-9-48-21-16-11-71-40-121-64-51-23-139-70-196-104l-105-61-1279 1h-1279l-70 45c-71 46-327 174-348 174-7 0-21 7-31 15-11 8-22 15-25 15s-7-407-9-904z"/><path d="M7364.483 1387.798c-36-30-99-76-207-151-44-30-98-68-120-85-48-35-98-70-185-131-36-24-103-72-150-106s-118-85-159-114c-127-91-282-206-381-282-52-40-134-99-182-130-49-31-88-61-88-66 0-7 553-10 1530-10 842 0 1530 1 1530 3 0 1-25 20-56 42s-73 54-93 70c-50 40-126 95-430 313-368 263-389 277-466 332-109 77-199 141-340 245-71 52-140 95-152 95s-35-11-51-25z"/><path d="M9352.483 1275.798v-138l46-24c57-31 164-126 237-212 57-68 162-248 192-329 9-25 31-78 48-118 29-70 31-73 42-50 28 53 39 137 39 268-1 196-29 297-127 472-45 80-126 150-234 202-68 34-105 44-205 61l-38 6zm-3995 107c-163-30-282-125-372-296-73-141-97-242-97-419-1-122 2-149 22-207 13-38 27-68 31-68s13 19 20 43c49 167 185 405 298 523 70 72 175 164 209 182 22 12 24 19 25 90 0 42 2 91 3 107 1 17 1 36-2 43-5 13-70 14-137 2z" fill="#a00"/><ellipse cx="7902.076" cy="-2432.71" transform="scale(1 -1)" rx="139.207" ry="136.985" fill="#fff"/><path d="M7829.512 2500.633c-37-36-5-144 49-164 30-12 52-5 88 28 34 33 38 101 7 132-26 26-120 28-144 4z"/></g></svg>