<svg width="825.95" height="412.11" clip-rule="evenodd" fill-rule="evenodd" stroke-linejoin="round" stroke-miterlimit="1.414" xmlns="http://www.w3.org/2000/svg" viewBox="0 0 825.95 412.11"><g fill-rule="nonzero"><path d="M394.53.001c-4.771 0-9.179 2.59-11.602 6.701l-14.162 23.854c-.746.073-1.488.147-2.23.226l-18.313-20.484a5 5 0 00-.006-.006c-3.176-3.544-8.014-5.194-12.68-4.238a5 5 0 00-.017.004c-4.67.974-8.46 4.388-10.057 8.879l-9.416 26.25c-.755.235-1.508.472-2.258.713L292.09 25.613l-.002-.002c-3.809-2.868-8.918-3.505-13.305-1.598-4.376 1.893-7.413 5.945-8.146 10.65l.002-.002-4.34 27.752c-.707.392-1.412.787-2.115 1.184l-24.32-11.567-.004-.002a13.34 13.34 0 00-13.342 1.122c-3.917 2.725-6.121 7.277-5.95 12.042l-.001-.012.945 28.201c-.623.53-1.244 1.061-1.861 1.596l-26.08-6.414a5 5 0 00-.014-.004c-4.633-1.125-9.538.35-12.834 3.787-3.307 3.443-4.602 8.322-3.563 12.95a5 5 0 00.002.007l6.205 27.482c-.527.662-1.05 1.33-1.574 1.998l-26.805-.972a5 5 0 00-.03-.002c-4.718-.141-9.217 2.242-11.8 6.27-2.584 4.01-2.951 9.038-1.052 13.396a5 5 0 00.002.004l11.205 25.635c-.42.803-.836 1.615-1.252 2.431l-26.44 4.49c-4.712.794-8.612 4.075-10.37 8.489a5 5 0 00-.007.015 14.28 14.28 0 001.498 13.338 5 5 0 00.004.008l15.168 21.969-.927.984c-12.94-5.289-24.957-12.072-30.956-19.004 4.89-6.408 15.523-22.236 18.446-42.312 1.909-13.113.346-28.158-8.496-42.813-8.843-14.655-24.75-28.756-50.825-40.886a5 5 0 00-7.058 5.248l9.92 68.6c-9.212-9.547-22.267-27.383-26.314-54.61a5 5 0 00-7.883-3.313S7.417 116.113 1.489 138.897c-2.964 11.392-1.945 25.082 7.088 38.834 8.843 13.463 25.064 27.025 52.045 40.283.309.813.273.952.927 2.228 1.346 2.627 3.563 6.245 7.123 10.545 6.446 7.786 17.664 17.827 35.67 28.354l-18.756 19.926.557-.508s-3.443 2.95-4.21 7.756c-.768 4.805.796 11.202 6.75 18.734h-.003c5.345 6.765 19.713 21.376 36.367 37.967 16.61 16.547 35.201 34.66 48.106 47.168 5.385 6.268 9.969 11.41 13.365 14.951 1.722 1.795 3.124 3.18 4.344 4.225.61.522 1.13.957 1.925 1.42.398.231.842.5 1.758.714.917.214 2.952.346 4.645-1.13a5 5 0 00.01-.008c2.146-1.882 1.783-3.14 1.832-3.897.048-.757-.007-1.31-.082-1.9-.151-1.18-.438-2.442-.865-3.969-.856-3.053-2.295-7.073-4.452-11.91-4.285-9.613-11.418-22.4-22.306-36.197-8.164-11.999-17.602-27.328-24.274-39.999-3.338-6.34-5.986-12.051-7.398-16.107-.689-1.978-1.04-3.537-1.125-4.346.429-.532 4.575-5.321 13.184-9.685 12.604 5.672 244.62 107.36 464.46 3.076a96.525 96.525 0 0010.924-2.51c17.668-.726 27.773 7.126 29.174 8.287.04.751-.023 2.16-.332 4.05-.652 3.987-2.185 9.742-4.258 16.202-4.144 12.916-10.431 28.795-16.066 41.352l-.006.014c-7.868 14.704-12.427 27.817-14.856 37.492-1.223 4.873-1.913 8.862-2.216 11.86-.152 1.498-.215 2.727-.165 3.87.026.572.063 1.107.239 1.834.175.727.027 2.047 2.506 3.522 1.948 1.16 3.925.645 4.777.271.853-.374 1.228-.712 1.568-1.004.68-.583 1.096-1.083 1.58-1.68.97-1.192 2.05-2.723 3.358-4.693 2.579-3.88 6-9.453 9.98-16.205 9.952-13.868 24.277-33.936 37.016-52.203 12.773-18.315 23.735-34.377 27.62-41.62 4.321-8.06 4.769-14.332 3.247-18.76-1.522-4.43-5.338-6.667-5.338-6.667l.649.406-25.096-18.488c17.781-16.575 28.315-32.475 29.818-34.82 50.773-30.45 65.299-63.053 65.858-88.182.563-25.316-12.649-42.707-12.649-42.707a5 5 0 00-8.904 2.131c-4.721 26.077-14.97 41.436-23.855 50.402-3.666 3.7-6.864 6.065-9.547 7.815-.749-25.371.695-42.227 2.484-52.272.99-5.562 2.049-9.184 2.809-11.33s1.02-2.486 1.02-2.486a5 5 0 00-6.286-7.184c-28.233 12.471-45.393 26.559-54.97 41.12-9.578 14.56-11.276 29.497-9.13 42.392 3.444 20.689 15.83 36.113 20.766 41.611l-4.738 10.522c-2.727 2.752-5.324 5.064-7.955 7.486l5.08-7.36c2.722-3.928 3.242-8.942 1.504-13.349a5 5 0 00-.004-.012c-1.756-4.42-5.657-7.688-10.36-8.492a5 5 0 00-.006-.002l-26.443-4.49c-.415-.816-.828-1.628-1.246-2.43l11.191-25.62a14.195 14.195 0 00-1.039-13.413c-2.557-3.994-7.053-6.458-11.838-6.271h-.004l-26.795.972a248.11 248.11 0 00-1.584-2.002l6.217-27.476a5 5 0 000-.002c1.049-4.64-.258-9.515-3.553-12.953l-.002-.002c-3.291-3.439-8.2-4.924-12.841-3.785a5 5 0 00-.002 0l-26.084 6.414a251.62 251.62 0 00-1.86-1.594l.948-28.203-.002.01c.169-4.755-2.027-9.313-5.948-12.04l-.002-.001c-3.913-2.73-9.035-3.159-13.334-1.121a5 5 0 00-.006.002l-24.33 11.568c-.7-.396-1.404-.791-2.111-1.184l-4.336-27.752a5 5 0 000-.002c-.735-4.693-3.763-8.758-8.154-10.65-4.382-1.897-9.477-1.26-13.28 1.598l-21.714 16.293c-.75-.241-1.504-.479-2.258-.713l-9.408-26.26-.002-.004c-1.602-4.477-5.387-7.905-10.077-8.87a5 5 0 00-.006 0c-4.665-.952-9.505.701-12.675 4.243a5 5 0 00-.002.002l-18.311 20.484a261.59 261.59 0 00-2.225-.226L406.136 6.69l-.002-.002C403.704 2.595 399.3 0 394.527 0zm0 10c1.185 0 2.308.613 3.008 1.791a5 5 0 00.002.002l15.449 26.032a5 5 0 003.867 2.427 260.1 260.1 0 017.129.729 5 5 0 004.299-1.635l20.01-22.385c.877-.979 2.043-1.348 3.214-1.111 1.17.24 2.19 1.092 2.672 2.443a5 5 0 00.002.004l10.246 28.596a5 5 0 003.272 3.102 247 247 0 016.931 2.193 5 5 0 004.577-.746l23.771-17.836a5 5 0 00.008-.006c1.012-.762 2.194-.896 3.299-.416a5 5 0 00.015.006c1.112.478 2.011 1.6 2.233 3.015l4.71 30.155a5 5 0 002.561 3.627c2.13 1.152 4.254 2.35 6.381 3.57a5 5 0 004.635.18l26.662-12.678c1.12-.528 2.285-.437 3.326.29a5 5 0 00.012.01c1.03.713 1.717 2.04 1.666 3.474a5 5 0 00-.002.01l-1.027 30.601a5 5 0 001.8 4.012 241.51 241.51 0 015.52 4.734 5 5 0 004.506 1.11l28.578-7.028c1.151-.282 2.333.05 3.234.99a5 5 0 00.004.005c.92.958 1.34 2.422 1.022 3.832l-6.744 29.804a5 5 0 001.006 4.27 236.66 236.66 0 014.54 5.742 5 5 0 004.149 1.951l29.344-1.064a5 5 0 00.015 0c1.184-.047 2.282.505 3.028 1.672a5 5 0 00.011.015c.735 1.14.865 2.682.297 3.969a5 5 0 00-.006.016l-12.148 27.81a5 5 0 00.16 4.336 251.92 251.92 0 013.406 6.637 5 5 0 003.655 2.728l28.91 4.909c1.166.201 2.227 1.03 2.742 2.322.524 1.337.343 2.87-.424 3.978a5 5 0 00-.006.008l-17.1 24.77a5 5 0 00-.675 4.27c.428 1.436.848 2.906 1.275 4.396a5 5 0 007.777 2.644c8.583-6.342 17.816-14.177 27.541-24.062a5 5 0 00.995-1.453l6.494-14.423a5 5 0 00-1.034-5.598s-16.708-16.96-20.337-38.76c-1.815-10.9-.564-22.81 7.62-35.253 7.078-10.76 19.601-21.99 40.342-32.559-.374 1.624-.752 3.157-1.115 5.191-2.149 12.066-3.859 31.656-2.426 62.5a5 5 0 006.635 4.49s9.575-3.42 19.803-13.741c8.514-8.592 17.727-22.211 23.508-42.602 2.593 6.339 5.03 15.076 4.799 25.514-.485 21.775-12.25 50.995-62.002 80.486a5 5 0 00-1.692 1.65s-12.309 19.654-33.107 37.75a5 5 0 00.316 7.797l29.973 22.08a5 5 0 00.648.407s.085-.197.514 1.052c.43 1.25.879 4.292-2.604 10.785-3 5.595-14.283 22.377-27.01 40.625-12.726 18.249-27.094 38.378-37.034 52.229a5 5 0 00-.247.379c-.42.715-.627.995-1.035 1.682 2.519-7.777 6.24-17.064 11.7-27.22a5 5 0 00.158-.32c5.787-12.893 12.154-28.959 16.468-42.404 2.158-6.722 3.806-12.753 4.606-17.644.4-2.446.614-4.583.447-6.678-.166-2.095-.617-4.914-3.627-6.658l.78.558s-14.218-12.23-37.061-11.166a5 5 0 00-1.215.21 86.527 86.527 0 01-11.388 2.614 5 5 0 00-1.36.422c-221.24 105.28-458.85-3.9-458.85-3.9a5 5 0 00-4.164-.01c-11.85 5.397-17.91 12.654-18.562 13.45-2.442 2.24-2.464 5.023-2.268 7.142.202 2.177.809 4.355 1.666 6.818 1.715 4.927 4.526 10.892 7.995 17.479 6.936 13.172 16.496 28.682 24.873 40.992a5 5 0 00.212.29c8.384 10.587 14.314 20.446 18.42 28.571-1.19-1.364-1.858-2.021-3.154-3.531a5 5 0 00-.314-.334c-12.89-12.493-31.54-30.666-48.137-47.2-16.597-16.533-31.41-31.806-35.578-37.081a5 5 0 00-.002 0c-4.835-6.117-4.96-9.447-4.719-10.957s.504-1.463.504-1.463a5 5 0 00.557-.508l23.017-24.453a5 5 0 00-1.254-7.82c-20.636-11.213-32.045-21.736-38.256-29.239-3.105-3.751-4.913-6.75-5.927-8.728-1.015-1.98-1.147-2.612-1.147-2.612a5 5 0 00-2.656-3.21c-27.014-13.037-42.1-26.034-49.71-37.62-7.61-11.585-8.139-21.717-5.769-30.826 2.963-11.386 10.732-20.394 16.36-25.908 9.562 41.371 38.592 60.94 38.592 60.94a5 5 0 007.726-4.872L63.36 99.083c19.638 10.425 31.394 21.747 38.058 32.791 7.569 12.544 8.81 24.89 7.162 36.207-3.295 22.635-18.64 40.363-18.64 40.363a5 5 0 00-.485 5.952c7.814 12.498 24.393 20.696 40.975 27.084a5 5 0 005.438-1.239l5.35-5.683a5 5 0 001.15-1.996c.152-.509.272-.946.38-1.307a5 5 0 00-.671-4.283l-17.098-24.764c-.772-1.122-.955-2.668-.438-3.988.528-1.318 1.576-2.13 2.739-2.326a5 5 0 00.006 0l28.91-4.909a5 5 0 003.646-2.712 275.88 275.88 0 013.422-6.65 5 5 0 00.162-4.339l-12.154-27.806c-.569-1.306-.436-2.858.293-3.989a5 5 0 00.008-.011c.727-1.135 1.88-1.71 3.082-1.674l29.31 1.062a5 5 0 004.153-1.957c1.482-1.935 3-3.854 4.54-5.761a5 5 0 00.987-4.243l-6.728-29.8c-.32-1.422.1-2.88 1.017-3.834a5 5 0 00.002-.004c.907-.946 2.088-1.275 3.26-.99l28.563 7.023a5 5 0 004.496-1.102 275.24 275.24 0 015.535-4.744 5 5 0 001.797-4.01l-1.026-30.601a5 5 0 00-.002-.012c-.051-1.428.64-2.761 1.67-3.477a5 5 0 00.018-.011c1.018-.714 2.211-.81 3.314-.285a5 5 0 00.004.002l26.658 12.677a5 5 0 004.641-.181 285.46 285.46 0 016.38-3.57 5 5 0 002.558-3.626l4.714-30.156a5 5 0 00.002-.002c.218-1.401 1.128-2.536 2.234-3.013a5 5 0 00.014-.006c1.11-.483 2.285-.352 3.307.418a5 5 0 00.006.004l23.763 17.836a5 5 0 004.567.752 277.13 277.13 0 016.945-2.198 5 5 0 003.27-3.101l10.255-28.596a5 5 0 00.004-.014c.475-1.336 1.491-2.184 2.67-2.433 1.155-.233 2.34.14 3.215 1.115l.002.002 20.006 22.379a5 5 0 004.299 1.635c2.38-.274 4.765-.523 7.135-.729a5 5 0 003.867-2.428l15.455-26.03a5 5 0 00.008-.015c.684-1.16 1.816-1.779 2.988-1.779z" clip-rule="nonzero" color="#000" paint-order="stroke markers fill"/><path d="M658.63 273.36l-7.92-16.406c.04-.622.072-1.246.072-1.872 0-18.598-19.34-35.739-51.877-49.463v11.412a228.85 228.85 0 00-9.918-3.67v-5.32c-46.5-16.77-115.72-27.41-193.05-27.41-67.56 0-128.94 8.122-174.38 21.359v18.532h-.001v-22.431c-46.557 14.795-75.422 35.349-75.422 58.075 0 3.582.723 7.11 2.111 10.571l-4.742 8.442s-3.8 4.93 2.89 15.328c5.901 9.17 35.461 45.065 51.063 63.862 6.701 9.636 11.246 15.572 11.643 14.998.627-.91-4.167-19.002-17.475-39.644-6.21-11.085-13.626-25.774-18.078-36.623 12.427 7.867 85.443 44.634 234.38 44.484 152.21-.152 219.87-47.797 227.29-54.283-2.595 10.424-11.46 31.514-18.531 46.345-11.617 21.213-15.826 39.68-15.285 40.593.344.576 4.307-5.538 10.154-15.446 13.601-19.384 39.377-56.385 44.527-65.81 5.837-10.685 2.552-15.623 2.552-15.623" fill="#a52b00" stroke="#000" stroke-width="10" paint-order="stroke markers fill"/><path d="M394.53 5.001c-2.972 0-5.742 1.604-7.295 4.24L371.78 35.273c-2.428.21-4.86.464-7.274.742L344.495 13.63c-2.028-2.262-5.042-3.274-7.954-2.678-2.926.61-5.33 2.744-6.367 5.659l-10.256 28.595a280.42 280.42 0 00-7.072 2.237l-23.764-17.836c-2.416-1.82-5.561-2.205-8.31-1.008-2.743 1.185-4.718 3.78-5.193 6.834l-4.715 30.156a290.43 290.43 0 00-6.492 3.633l-26.659-12.678a8.27 8.27 0 00-8.336.705c-2.475 1.72-3.924 4.665-3.812 7.762l1.025 30.602a280.33 280.33 0 00-5.636 4.832l-28.577-7.028c-2.902-.704-5.945.198-8.047 2.389-2.113 2.199-2.97 5.369-2.29 8.394l6.73 29.807a288.54 288.54 0 00-4.621 5.863l-29.342-1.064c-2.96-.089-5.789 1.391-7.443 3.975-1.658 2.57-1.908 5.862-.674 8.695l12.156 27.81a280.25 280.25 0 00-3.484 6.77l-28.91 4.908c-2.94.495-5.414 2.542-6.557 5.41-1.134 2.873-.766 6.149.967 8.668l17.101 24.77c-.132.437-.253.88-.384 1.318l-5.35 5.684c-16.198-6.24-32.003-14.626-38.531-25.069 0 0 65.102-74.055-36.65-121.39l11.847 81.933s-31.368-20.963-38.137-66.494c0 0-76.385 55.438 33.713 108.57 0 0 5.551 20.737 47.774 43.677l-23.018 24.453s-7.411 5.807 3.377 19.456c9.513 12.04 58.36 59.768 84.158 84.771 10.895 12.694 18.361 20.555 19.14 19.875 1.232-1.08-5.23-24.175-26.69-51.273-16.545-24.313-38.016-61.706-32.981-66.016 0 0 5.726-7.269 17.217-12.502 0 0 239.38 110.32 463.09 3.875a91.544 91.544 0 0012.046-2.768c21.025-.98 33.541 9.94 33.541 9.94 5.365 3.11-8.525 41.56-19.949 67.012-15.535 28.9-17.815 51.454-16.498 52.236.832.497 6.484-8.106 14.547-21.795 19.896-27.722 57.505-80.569 64.389-93.406 7.804-14.554 0-18.633 0-18.633l-29.973-22.08c21.416-18.633 34.066-38.871 34.066-38.871 101.45-60.134 52.819-124.25 52.819-124.25-9.775 53.99-43.115 65.57-43.115 65.57-2.84-61.122 6.84-76.941 6.84-76.941-110.58 48.842-39.444 119.6-39.444 119.6l-6.494 14.421c-9.543 9.7-18.57 17.355-26.947 23.547-.426-1.487-.851-2.974-1.291-4.45l17.1-24.769c1.745-2.52 2.095-5.795.962-8.668-1.136-2.859-3.618-4.908-6.555-5.41l-28.91-4.908a256.17 256.17 0 00-3.474-6.77l12.148-27.81a9.234 9.234 0 00-.672-8.695c-1.651-2.584-4.45-4.093-7.437-3.975l-29.344 1.064a241.54 241.54 0 00-4.637-5.863L607 104.201c.684-3.025-.18-6.195-2.289-8.394-2.096-2.19-5.142-3.1-8.039-2.389l-28.58 7.028a246.52 246.52 0 00-5.634-4.832l1.027-30.602c.11-3.097-1.333-6.042-3.813-7.762a8.28 8.28 0 00-8.334-.705l-26.662 12.678a297.65 297.65 0 00-6.49-3.633l-4.71-30.156c-.48-3.055-2.444-5.65-5.196-6.834-2.746-1.192-5.89-.806-8.3 1.008l-23.77 17.836a252.66 252.66 0 00-7.073-2.237l-10.246-28.595c-1.042-2.915-3.445-5.056-6.375-5.659-2.92-.596-5.924.416-7.95 2.678l-20.009 22.385c-2.418-.278-4.84-.532-7.267-.742L401.84 9.242c-1.564-2.636-4.328-4.24-7.308-4.24z" clip-rule="nonzero" color="#000" fill="#f74c00" paint-order="stroke markers fill"/><g stroke="#000" stroke-width="3.78"><path d="M440.54 214.97s24.233-26.534 48.467 0c0 0 19.041 35.382 0 53.07 0 0-31.156 24.767-48.467 0 0 0-20.77-19.46 0-53.07"/><path d="M468.59 224.81c0 10.33-6.09 18.708-13.602 18.708-7.511 0-13.601-8.377-13.601-18.708 0-10.334 6.09-18.711 13.6-18.711 7.513 0 13.603 8.377 13.603 18.71" fill="#fff"/><path d="M332.38 207.72s41.567-18.405 52.913 22.676c0 0 11.885 47.882-34.137 50.585 0 0-58.684-11.303-18.776-73.26"/></g></g><path d="M786.63 172.7c-2.788-.772-3.146-.96-3.318-1.744-.69-3.135-2.182-5.668-4.078-6.92-1.627-1.074-5.24-2.008-6.905-1.785-1.898.255-4.29 1.533-5.922 3.165l-1.445 1.445-9.01-2.424-.557-2.002c-1.027-3.695-2.894-5.836-6.015-6.9-3.968-1.352-7.644-.522-10.546 2.38l-1.552 1.552-4.532-1.24-4.531-1.239-.215-1.212c-.325-1.835-2.13-5.02-3.472-6.125-2.68-2.21-7.302-2.808-10.315-1.337-.924.452-2.32 1.48-3.103 2.285l-1.423 1.464-4.41-1.195c-2.425-.657-4.474-1.195-4.553-1.195-.08 0-.245-.569-.369-1.264-.334-1.882-2.125-5.06-3.48-6.178-2.681-2.209-5.303-2.808-8.316-1.336-.925.452-2.071 1.843-3.104 2.285l-3.422 1.463-4.41-1.194c-2.425-.657-4.462-1.195-4.526-1.195s-.215-.62-.336-1.377c-.817-5.11-3.17-8.38-8.635-7.99-2.694.193-4.125 2.878-6.008 4.878l-1.431 1.52-5.034-2.781c-1.508-.834-3.2-.885-3.402-1.01-.253-.157-.01-1.586.78-4.57l1.147-4.342 1.42-.242c1.963-.335 4.633-1.86 5.948-3.396 1.265-1.477 2.198-4.391 2.193-6.849-.004-2.218-1.19-4.679-3.103-6.434l-1.521-1.397 1.213-4.572 1.212-4.573 1.354-.22c1.971-.321 4.438-1.765 5.95-3.482 3.31-3.762 2.912-9.842-.877-13.371l-1.483-1.38 1.238-4.582 1.239-4.582 1.439-.198c1.908-.261 3.817-1.269 5.343-2.82 3.752-3.816 3.562-10.258-.41-13.92l-1.486-1.37 1.205-4.446c.662-2.446 1.386-4.562 1.608-4.703.222-.142.791-.26 1.265-.262 1.334-.008 4.195-1.59 5.511-3.046 1.43-1.583 2.396-4.486 2.356-7.077-.036-2.298-.997-4.322-3.06-6.45l-1.514-1.56.892-3.33c.49-1.832 1.04-3.802 1.22-4.378l.33-1.048 2.267.632c1.246.348 2.814.782 3.485.965 1.13.307 1.235.447 1.434 1.906.274 1.995 1.505 4.104 3.286 5.628 3.786 3.242 9.493 2.94 13.184-.695l1.624-1.6 3.791.972c5.44 1.396 5.127 1.21 5.602 3.33 1.722 7.695 10.968 10.175 16.646 4.463l1.44-1.449 9.042 2.446.573 2.103c1.078 3.954 3.59 6.412 7.352 7.193 3.565.74 6.61-.21 9.182-2.863l1.411-1.456 4.651 1.212 4.651 1.213.208 1.567c.26 1.957 2.376 5.329 3.948 6.29 1.397.853 4.433 1.772 5.86 1.772 2.24 0 4.48-.981 6.49-2.842l1.954-1.808 4.595 1.219 4.595 1.218.198 1.445c.478 3.49 3.011 6.426 6.465 7.493 4.143 1.28 6.778.695 9.899-2.195l1.941-1.797 3.178.863c1.748.475 3.215.897 3.261.937s-.132.82-.396 1.733c-.263.912-.806 2.893-1.205 4.402l-.727 2.744-1.388.222c-3.4.543-6.576 3.275-7.558 6.502-1.231 4.043-.29 7.741 2.644 10.392l1.382 1.248-1.088 4.094c-1.323 4.975-1.472 5.273-2.635 5.277-1.393.005-4.14 1.448-5.536 2.907a9.79 9.79 0 00-2.74 6.671c-.04 2.59.842 4.627 3 6.935l1.59 1.7-1.167 4.437-1.166 4.439-2.001.553c-4.901 1.356-7.566 4.678-7.566 9.434 0 2.864.848 4.945 2.816 6.914l1.692 1.691-1.177 4.537-1.176 4.536-1.836.376c-2.247.46-3.035.879-4.92 2.617-1.14 1.051-1.62 1.841-2.144 3.538-.968 3.135-.882 4.965.35 7.428.563 1.127 1.606 2.576 2.319 3.22l1.295 1.17-1.188 4.423c-.653 2.432-1.28 4.41-1.392 4.395-.112-.014-1.61-.416-3.329-.891zm-9.028-22.722c.62-.282 1.008 1.125 1.38-.107.807-2.67 20.347-75.564 21.094-78.69.587-2.459.609-2.885.184-3.696-.525-1.002 6.312.895-82.507-22.895-12.15-3.254-22.849-5.995-23.776-6.091-1.141-.119-1.884-.026-2.297.286-.45.34-3.367 10.75-11.042 39.403-5.738 21.417-10.685 39.98-10.994 41.25-.749 3.077-.458 1.889 1.675 2.68.887.33 17.73 4.922 37.43 10.204a43585 43585 0 0151.329 13.793c8.532 2.304 15.771 4.204 16.087 4.223.316.018.963-.143 1.437-.36z" fill="#fff" paint-order="markers stroke fill"/><path d="M353.26 225.49c0 10.655-6.28 19.296-14.028 19.296-7.745 0-14.027-8.641-14.027-19.296 0-10.657 6.282-19.296 14.027-19.296 7.748 0 14.028 8.639 14.028 19.296" fill="#fff" fill-rule="nonzero" stroke="#000" stroke-width="3.78"/><path d="M385.63 297.72l53.01-4.254s-1.796 8.533-8.712 14.939c0 0-18.233 19.991-39.152-1.662 0 0-8.12-8.978-5.146-9.023" fill-rule="nonzero" stroke="#000" stroke-width="3.78"/><path d="M723.96 134.36c-30.867-8.287-50.613-13.978-50.616-14.587-.004-.84 20.148-76.812 20.502-77.292.19-.257 102.11 27.152 102.53 27.572.61.61-20.22 77.498-21.052 77.707-.416.104-23.532-5.926-51.368-13.4z" fill="#fff" paint-order="markers stroke fill"/><path d="M644.35 137.67l.503.916 6.528 1.749c6.06 1.624 6.593 1.736 7.411 1.361.664-.26 1.045-.751 1.47-1.761 1.335-3.234 5.126-4.093 7.544-1.696 1.037 1.027 1.638 3.094 1.272 4.462-.117.437.002 1.156.33 1.681l.504.917 7.517 2.014c5.456 1.43 7.666 1.928 8.085 1.76.81-.346 1.541-1.21 1.799-2.173.507-1.893 3.246-3.253 5.401-2.675 2.098.562 3.832 3.182 3.34 5.018-.258.962-.057 2.076.472 2.78.529.705 15.272 4.656 16.084 4.31.811-.345 1.542-1.21 1.8-2.172.507-1.894 3.245-3.253 5.401-2.676 2.157.578 3.848 3.123 3.34 5.018-.258.962-.057 2.077.473 2.782.279.355 2.441 1.029 7.949 2.505 5.507 1.475 7.715 1.974 8.136 1.804.81-.345 1.543-1.21 1.8-2.172.508-1.893 3.246-3.253 5.402-2.675 2.098.562 3.832 3.182 3.34 5.018-.258.962-.057 2.076.473 2.781.28.356 2.44 1.03 7.949 2.505 5.507 1.476 7.715 1.974 8.136 1.805.81-.346 1.543-1.21 1.8-2.172.508-1.894 3.246-3.254 5.402-2.676 2.155.578 3.847 3.123 3.34 5.018-.258.962-.058 2.076.471 2.781.252.348 2.208.967 6.863 2.245l6.498 1.741.894-.542.916-.503 2.037-7.604 2.038-7.605-.542-.895c-.29-.546-.853-1.01-1.348-1.142-1.282-.344-2.943-2.07-3.251-3.37-.555-2.241.744-4.641 2.87-5.352.478-.153 1.534-.245 2.322-.16.951.068 1.743-.094 2.277-.452.872-.578.911-.723 2.863-8.009l2-7.459-.62-1.071c-.455-.747-.91-1.15-1.609-1.337-3-.804-3.985-4.941-1.779-7.347.917-.973 3.218-1.636 4.558-1.277.466.125 1.185.006 1.71-.323l.916-.504 2.038-7.602 2.037-7.605-.541-.894c-.291-.547-.854-1.01-1.32-1.135-1.34-.36-3.001-2.085-3.309-3.385-.707-3.188 2.212-6.278 5.214-5.474.7.188 1.295.067 2.063-.352l1.071-.619 1.999-7.46c1.951-7.283 1.99-7.43 1.524-8.366-.284-.575-.888-1.112-1.746-1.53-.727-.318-1.594-.926-1.931-1.298-1.487-1.68-1.41-4.407.19-6.07.917-.973 3.217-1.635 4.5-1.292.495.133 1.214.014 1.74-.315l.916-.505 2.038-7.604 2.038-7.605-.542-.894-.504-.917-6.497-1.74c-4.669-1.22-6.675-1.664-7.066-1.488-.81.346-1.542 1.212-1.8 2.173-.507 1.893-3.245 3.253-5.4 2.675-2.127-.57-3.848-3.122-3.348-4.987.312-1.166.06-2.326-.683-2.932-.895-.74-15.123-4.52-15.866-4.19-.81.346-1.543 1.212-1.8 2.173-.508 1.893-3.246 3.253-5.402 2.675-2.157-.577-3.847-3.122-3.34-5.017.258-.963.058-2.078-.473-2.782-.28-.356-2.44-1.03-7.948-2.505-5.508-1.476-7.716-1.973-8.137-1.805-.81.346-1.543 1.212-1.8 2.172-.508 1.894-3.246 3.254-5.402 2.676-2.155-.577-3.847-3.123-3.34-5.018.258-.962.058-2.078-.471-2.78-.53-.704-15.273-4.654-16.085-4.31-.81.345-1.542 1.211-1.8 2.172-.507 1.894-3.245 3.253-5.4 2.676-2.156-.578-3.848-3.123-3.34-5.018.258-.962.057-2.078-.472-2.781-.28-.356-2.441-1.03-7.882-2.518l-7.517-2.015-.894.542c-.546.291-1.01.854-1.127 1.29-.383 1.429-2.018 2.99-3.406 3.273-3.32.734-6.065-1.844-5.612-5.282.135-1.088.05-1.705-.392-2.261-.522-.734-1.04-.903-7.1-2.527l-6.527-1.75-.894.543-.917.503-2.037 7.606-2.038 7.605.541.896c.291.546.854 1.01 1.348 1.142 1.282.344 2.944 2.07 3.252 3.37.555 2.24-.745 4.641-2.871 5.35-.479.153-1.534.245-2.322.16-.95-.067-1.744.095-2.306.444-.843.585-.883.731-2.834 8.015l-2 7.46.62 1.07c.455.748.909 1.15 1.609 1.338 3 .804 3.985 4.94 1.779 7.347-.916.972-3.219 1.635-4.558 1.276-.466-.124-1.185-.006-1.71.324l-.917.503-2.037 7.604-2.038 7.605.542.895c.29.546.854 1.01 1.32 1.135 1.339.358 3 2.085 3.308 3.384.708 3.187-2.212 6.278-5.214 5.474-.699-.188-1.294-.066-2.062.353l-1.071.618-2 7.46c-1.95 7.283-1.99 7.43-1.552 8.36.312.582.917 1.12 1.774 1.537.727.32 1.594.926 1.931 1.299 1.487 1.68 1.412 4.407-.189 6.071-.916.972-3.219 1.636-4.5 1.292-.495-.132-1.214-.012-1.74.316l-.916.503-2.037 7.602-2.038 7.606zm8.83-12.094c1.959-.318 4.226-1.553 5.628-3.052 1.013-1.102 1.279-1.625 1.888-3.898.632-2.36.655-2.79.25-4.43-.507-2.072-1.74-3.995-3.322-5.198l-1.141-.868 2.498-9.324 1.547-.179c3.308-.457 6.592-3.386 7.49-6.737.945-3.525-.312-7.579-3.02-9.71l-1.284-1.03 1.241-4.634 1.241-4.633 1.629-.25c3.477-.504 6.51-3.315 7.47-6.899.897-3.35-.502-7.566-3.176-9.595l-1.191-.913 1.25-4.662 1.248-4.663 1.423-.182c1.973-.253 4.002-1.302 5.477-2.841 1.17-1.218 1.365-1.602 1.998-3.962.609-2.273.64-2.858.313-4.32-.463-1.997-1.809-4.2-3.347-5.457l-1.133-.897 1.202-4.488 1.21-4.517 3.613.968 3.612.968-.036.834c.01 1.252.97 3.727 2.03 5.01 3.756 4.628 10.943 4.619 14.679-.002l.897-1.133 4.575 1.225 4.574 1.226.272 1.665c.369 2.005 1.569 4.168 3.192 5.57 1.694 1.486 5.483 2.501 7.692 2.062 2.041-.39 4.31-1.75 5.594-3.28l1.024-1.256 4.662 1.25 4.662 1.248.271 1.665c.369 2.005 1.57 4.168 3.192 5.57 1.694 1.486 5.483 2.501 7.692 2.062 2.041-.39 4.31-1.75 5.594-3.28l1.024-1.256 4.691 1.257 4.692 1.257.144 1.443c.203 1.804 1.647 4.346 3.231 5.77 1.723 1.492 5.483 2.5 7.721 2.068 2.041-.39 4.31-1.75 5.595-3.28l1.023-1.256 4.693 1.257 4.692 1.258.143 1.443c.204 1.803 1.647 4.345 3.233 5.769 1.725 1.493 5.483 2.5 7.722 2.069 2.04-.39 4.31-1.75 5.594-3.28l1.023-1.256 6.848 1.834-1.21 4.517-1.203 4.488-1.43.21c-1.959.32-4.226 1.554-5.627 3.053-1.013 1.102-1.279 1.625-1.888 3.898-.632 2.36-.655 2.79-.25 4.43.507 2.072 1.74 3.995 3.322 5.199l1.141.868-1.25 4.663-1.249 4.663-1.555.208c-4.561.589-8.174 5.21-7.875 10.039.141 2.036 1.758 5.093 3.412 6.38l1.285 1.031-1.242 4.637-1.241 4.632-1.629.25c-2.141.302-5.041 2.148-6.213 3.957-2.672 4.03-1.787 9.702 1.97 12.582l1.14.868-1.249 4.662-1.249 4.663-1.422.18c-1.972.253-4.002 1.301-5.477 2.841-1.17 1.217-1.365 1.602-1.998 3.962-.609 2.272-.64 2.858-.314 4.32.465 1.997 1.81 4.2 3.347 5.456l1.133.898-1.203 4.487-1.21 4.517-3.439-.921-3.408-.914-.258-1.6c-.348-1.966-1.64-4.249-3.213-5.607-1.715-1.521-5.475-2.529-7.685-2.09-2.048.419-4.688 1.993-5.72 3.401l-.839 1.15-4.692-1.258-4.691-1.257-.259-1.6c-.347-1.966-1.632-4.277-3.205-5.635-.958-.851-1.656-1.162-3.667-1.701s-2.77-.617-4.027-.361c-2.04.39-4.309 1.75-5.593 3.278l-1.024 1.257-4.66-1.249-4.662-1.25-.259-1.599c-.347-1.966-1.64-4.25-3.212-5.607-1.717-1.522-5.475-2.53-7.685-2.09-2.04.39-4.31 1.75-5.594 3.278l-1.023 1.257-4.661-1.25-4.663-1.249-.258-1.6c-.348-1.966-1.642-4.25-3.213-5.607-1.717-1.522-5.475-2.529-7.685-2.09-2.04.39-4.31 1.75-5.593 3.279l-1.024 1.256-4.545-1.218-4.576-1.226-.337-1.777c-.376-1.974-1.536-3.941-3.157-5.469-.88-.798-1.54-1.13-3.55-1.669-2.127-.57-2.741-.609-4.356-.292-2.144.425-4.134 1.672-5.419 3.325l-.867 1.141-3.584-.96-3.554-.952 1.21-4.517 1.203-4.488z"/><path d="M669.65 122.86l.514.935 53.246 14.267 53.245 14.267.912-.552.935-.514 11.081-41.354 11.08-41.354-.552-.912-.514-.935-106.49-28.534-.913.553-.935.513-11.08 41.354-11.081 41.354zm75.427-65.662l49.945 13.383-10.196 38.053-10.197 38.054-49.945-13.383-49.944-13.383 10.196-38.053 10.196-38.054z"/><g fill-rule="nonzero"><path d="M738.17 77.473a1.353 1.353 0 00-1.294.347l-1.986 1.938a26.279 26.279 0 00-.22-.036l-1.24-2.453a1.346 1.346 0 00-1.115-.738.5.5 0 00-.002 0 1.372 1.372 0 00-1.201.598l-1.589 2.291a25.86 25.86 0 00-.236.01l-1.675-2.134a1.335 1.335 0 00-1.244-.499c-.472.07-.87.382-1.062.818l-1.138 2.568-.235.06-2.05-1.747a1.334 1.334 0 00-1.317-.237 1.4 1.4 0 00-.887 1.009v-.001l-.638 2.748-.221.106-2.353-1.294a.5.5 0 00-.002-.001 1.345 1.345 0 00-1.337.033 1.42 1.42 0 00-.68 1.16l-.112 2.815-.203.152-2.564-.787a.5.5 0 00-.003-.001 1.359 1.359 0 00-1.302.3 1.42 1.42 0 00-.449 1.267l.42 2.766-.184.203-2.67-.251a1.369 1.369 0 00-1.222.552.5.5 0 00-.001 0 1.428 1.428 0 00-.2 1.328l.896 2.515-.115.072c-1.113-.846-2.098-1.812-2.498-2.637.638-.493 2.075-1.746 2.877-3.61.524-1.217.762-2.71.287-4.355s-1.646-3.418-3.851-5.265a.5.5 0 00-.818.324l-.817 6.883c-.643-1.16-1.442-3.221-1.128-5.956a.5.5 0 00-.676-.524s-2.343.86-3.505 2.907c-.581 1.024-.837 2.372-.32 3.935.505 1.529 1.721 3.259 3.984 5.238.01.086.002.099.032.239.062.288.183.695.415 1.203.421.919 1.245 2.179 2.712 3.662l-2.328 1.439.067-.035s-.409.196-.607.64c-.199.445-.213 1.103.167 1.985.341.792 1.35 2.575 2.53 4.608a519.67 519.67 0 003.426 5.802c.358.744.667 1.36.904 1.79.12.218.22.388.31.52.046.066.084.122.15.187a.534.534 0 00.63.126c.256-.127.253-.258.278-.33a.925.925 0 00.04-.186 2.6 2.6 0 00.02-.405 8.941 8.941 0 00-.122-1.266c-.165-1.04-.523-2.46-1.218-4.074-.478-1.37-.992-3.095-1.309-4.491-.158-.7-.266-1.32-.298-1.748a2.203 2.203 0 01.004-.449c.055-.04.58-.395 1.524-.594 1.07.874 20.85 16.701 44.784 12.318a9.653 9.653 0 001.12.04c1.726.388 2.499 1.408 2.604 1.556a2.066 2.066 0 01-.137.383c-.166.368-.463.884-.83 1.455-.735 1.14-1.753 2.51-2.623 3.578v.001c-1.141 1.217-1.921 2.365-2.406 3.237a8.54 8.54 0 00-.521 1.088 2.67 2.67 0 00-.116.37.884.884 0 00-.025.183c-.001.075-.05.199.151.405a.53.53 0 00.455.15c.092-.014.137-.037.177-.056.081-.039.134-.076.196-.122.125-.09.269-.21.446-.366.35-.308.824-.758 1.384-1.307a512.48 512.48 0 004.926-4.084c1.708-1.439 3.182-2.707 3.745-3.306.626-.666.832-1.26.8-1.728-.033-.467-.344-.782-.344-.782l.053.056-1.946-2.435c2.146-1.141 3.575-2.404 3.781-2.592 5.693-1.627 7.94-4.4 8.644-6.813.71-2.43-.116-4.453-.116-4.453a.5.5 0 00-.916-.024c-1.13 2.396-2.518 3.615-3.608 4.25a5.66 5.66 0 01-1.125.509c.585-2.47 1.16-4.061 1.593-4.985a7.28 7.28 0 01.565-1.022c.129-.187.163-.214.163-.214a.5.5 0 00-.422-.856c-3.05.474-5.072 1.39-6.374 2.549-1.302 1.158-1.852 2.557-1.979 3.858-.203 2.088.595 3.898.93 4.557l-.73.894c-.336.195-.646.351-.963.517l.681-.58a1.42 1.42 0 00.49-1.25.5.5 0 000-.001 1.37 1.37 0 00-.78-1.088l-2.439-1.119c-.019-.09-.037-.179-.057-.267l1.744-2.185a1.42 1.42 0 00.247-1.322 1.352 1.352 0 00-.981-.913l-2.614-.6a24.81 24.81 0 00-.101-.234l1.311-2.493a1.419 1.419 0 00-.008-1.343 1.341 1.341 0 00-1.142-.698l-2.686-.056a25.162 25.162 0 00-.138-.202l.821-2.7v.001c.14-.455.045-.952-.263-1.317a1.337 1.337 0 00-1.26-.453l-2.65.488a32.326 32.326 0 00-.173-.17l.3-2.792a1.388 1.388 0 00-.512-1.24 1.335 1.335 0 00-1.324-.19l-2.52 1.012a23.72 23.72 0 00-.199-.127l-.229-2.78a1.372 1.372 0 00-.744-1.118 1.346 1.346 0 00-1.335.081l-2.299 1.505-.209-.08-.75-2.671a1.357 1.357 0 00-.948-.947zm-.259.966c.115.031.207.12.244.251l.819 2.915a.5.5 0 00.31.334c.224.081.447.167.67.255a.5.5 0 00.458-.046l2.512-1.645a.333.333 0 01.34-.024.364.364 0 01.194.305l.25 3.028a.5.5 0 00.236.384c.207.128.41.258.612.392a.5.5 0 00.462.046l2.758-1.108a.32.32 0 01.33.045.5.5 0 00.001.001.392.392 0 01.138.35l-.326 3.034a.5.5 0 00.154.416c.176.167.35.338.524.51a.5.5 0 00.443.138l2.903-.535a.32.32 0 01.314.114.5.5 0 000 .002.408.408 0 01.072.378.5.5 0 000 .001l-.892 2.93a.5.5 0 00.07.434 24.151 24.151 0 01.411.6.5.5 0 00.406.224l2.943.06a.33.33 0 01.287.18.424.424 0 010 .397l-1.423 2.704a.5.5 0 00-.014.439 23.667 23.667 0 01.29.672.5.5 0 00.35.296l2.862.656a.5.5 0 00.002 0 .336.336 0 01.249.24.5.5 0 000 .002.428.428 0 01-.073.391.5.5 0 00-.001.002l-1.894 2.372a.5.5 0 00-.096.423 25.192 25.192 0 01.157.729.5.5 0 00.282.358l2.666 1.222a.37.37 0 01.205.296.432.432 0 01-.144.373.5.5 0 00-.001 0l-2.293 1.95a.5.5 0 00-.176.395l.01.458a.5.5 0 00.682.457c.994-.39 2.088-.909 3.283-1.612a.5.5 0 00.134-.114l1-1.225a.5.5 0 00.046-.568s-1.175-2.07-.961-4.27c.106-1.1.535-2.218 1.648-3.208.962-.856 2.462-1.617 4.74-2.1-.079.146-.155.285-.243.472-.52 1.11-1.192 2.958-1.852 5.974a.5.5 0 00.525.605s1.014-.082 2.269-.814c1.044-.61 2.287-1.687 3.373-3.507.086.68.096 1.586-.197 2.589-.61 2.09-2.503 4.608-8.072 6.17a.5.5 0 00-.206.115s-1.698 1.58-4.175 2.79a.5.5 0 00-.171.76l2.323 2.91a.5.5 0 00.052.055s.014-.017.023.115-.026.438-.53.975c-.435.462-1.96 1.791-3.661 3.225a501.95 501.95 0 01-4.93 4.086.5.5 0 00-.033.03c-.059.058-.086.08-.143.136a16.516 16.516 0 011.834-2.327.5.5 0 00.024-.026 43.882 43.882 0 002.688-3.67c.382-.593.698-1.133.902-1.585a2.85 2.85 0 00.216-.634c.038-.206.067-.49-.178-.737l.06.075s-1.056-1.55-3.29-2.038a.5.5 0 00-.123-.011 8.653 8.653 0 01-1.168-.043.5.5 0 00-.142.006c-24.095 4.443-44.22-12.253-44.22-12.253a.5.5 0 00-.402-.108c-1.285.214-2.058.758-2.142.818-.293.154-.368.422-.403.632a2.893 2.893 0 00-.016.701c.038.52.155 1.17.32 1.895.329 1.452.85 3.198 1.341 4.604a.5.5 0 00.013.033c.536 1.24.854 2.346 1.04 3.237-.08-.163-.127-.244-.213-.423a.5.5 0 00-.022-.04 520.47 520.47 0 01-3.428-5.805c-1.175-2.027-2.21-3.886-2.477-4.503-.309-.716-.234-1.04-.172-1.18s.087-.129.087-.129a.5.5 0 00.066-.034l2.857-1.767a.5.5 0 00.08-.788c-1.702-1.617-2.532-2.928-2.938-3.814-.202-.443-.3-.78-.346-.996-.047-.218-.043-.282-.043-.282a.5.5 0 00-.174-.38c-2.272-1.958-3.393-3.604-3.828-4.92s-.224-2.308.24-3.126c.582-1.024 1.565-1.693 2.252-2.08-.148 4.244 2.15 6.886 2.15 6.886a.5.5 0 00.872-.271l.864-7.273c1.627 1.515 2.47 2.913 2.828 4.152.406 1.408.206 2.632-.246 3.683-.904 2.1-2.845 3.416-2.845 3.416a.5.5 0 00-.2.562c.43 1.41 1.82 2.63 3.256 3.677a.5.5 0 00.557.021l.664-.41a.5.5 0 00.163-.163l.07-.117a.5.5 0 00.047-.43l-1.011-2.835a.436.436 0 01.06-.397.363.363 0 01.326-.154l2.92.275a.5.5 0 00.422-.168 27.588 27.588 0 01.503-.554.5.5 0 00.128-.415l-.455-3a.432.432 0 01.132-.378.5.5 0 00.001 0 .35.35 0 01.341-.083l2.804.861a.5.5 0 00.452-.081c.193-.149.389-.295.587-.439a.5.5 0 00.205-.384l.122-3.053a.423.423 0 01.197-.344.332.332 0 01.341-.012l2.577 1.418a.5.5 0 00.463.01 27.524 27.524 0 01.657-.315.5.5 0 00.278-.34l.693-2.983a.5.5 0 000-.001.41.41 0 01.251-.293.5.5 0 00.002 0 .32.32 0 01.328.058l2.247 1.914a.5.5 0 00.453.103 28.546 28.546 0 01.708-.18.5.5 0 00.341-.284l1.236-2.79a.394.394 0 01.294-.234.5.5 0 00.002 0c.12-.018.23.025.308.126l1.835 2.338a.5.5 0 00.421.191c.244-.014.486-.025.728-.032a.5.5 0 00.396-.215l1.73-2.497a.5.5 0 00.001-.001.362.362 0 01.321-.166.336.336 0 01.282.19l1.353 2.68a.5.5 0 00.373.27c.237.035.474.072.708.114a.5.5 0 00.437-.135l2.166-2.114a.5.5 0 00.001-.001.346.346 0 01.335-.095z" clip-rule="nonzero" color="#000" paint-order="stroke markers fill"/><path d="M756.61 110.71l-.34-1.79c.02-.06.04-.119.055-.18.482-1.795-.943-3.952-3.73-6.12l-.296 1.103a22.885 22.885 0 00-.863-.611l.138-.514c-4.058-2.824-10.469-5.643-17.938-7.644-6.526-1.749-12.665-2.553-17.397-2.45l-.48 1.79.58-2.167c-4.88.224-8.2 1.462-8.788 3.657a2.822 2.822 0 00-.07 1.076l-.676.693s-.494.377-.117 1.555c.332 1.039 2.259 5.27 3.28 7.49.397 1.104.682 1.795.736 1.75.084-.071.089-1.943-.662-4.281-.313-1.232-.65-2.843-.799-4.006.997 1.082 7.098 6.523 21.488 10.363 14.707 3.925 22.475 1.074 23.36.64-.52.94-1.922 2.747-2.99 3.997-1.67 1.748-2.555 3.423-2.526 3.525.018.065.56-.423 1.38-1.23 1.816-1.52 5.263-4.426 6.005-5.203.84-.881.65-1.443.65-1.443" fill="#a52b00" stroke="#000" paint-order="stroke markers fill"/><path d="M738.04 77.956a.85.85 0 00-.815.221l-2.166 2.115c-.24-.043-.482-.081-.722-.117l-1.354-2.68a.841.841 0 00-.699-.465.868.868 0 00-.761.382l-1.731 2.497a28.043 28.043 0 00-.741.033l-1.834-2.338a.826.826 0 00-.776-.313.891.891 0 00-.679.526l-1.236 2.791a29.043 29.043 0 00-.72.183l-2.248-1.915a.827.827 0 00-.823-.147.906.906 0 00-.57.65l-.692 2.983a28.033 28.033 0 00-.67.321l-2.578-1.418a.838.838 0 00-.84.022.921.921 0 00-.438.752l-.121 3.053a28.854 28.854 0 00-.598.447l-2.807-.863a.854.854 0 00-.822.192.928.928 0 00-.29.822l.454 3.001a28.025 28.025 0 00-.511.564l-2.92-.274a.866.866 0 00-.773.352.932.932 0 00-.131.863l1.01 2.835-.07.117-.665.41c-1.403-1.021-2.712-2.24-3.073-3.418 0 0 8.205-5.468-.398-12.674l-.976 8.221s-2.487-2.837-1.963-7.41c0 0-8.813 3.378.447 11.36 0 0-.001 2.146 3.484 5.455l-2.857 1.766s-.866.37-.177 1.967c.607 1.41 4.09 7.284 5.935 10.366.724 1.508 1.242 2.461 1.335 2.415.146-.072.12-2.47-1.252-5.643-.968-2.777-2.075-6.944-1.477-7.23 0 0 .742-.554 1.987-.762 0 0 20.267 16.852 44.63 12.36a9.154 9.154 0 001.236.044c2.056.45 2.982 1.828 2.982 1.828.438.44-1.899 3.794-3.661 5.957-2.249 2.39-3.053 4.509-2.946 4.619.068.07.837-.616 1.97-1.73 2.639-2.162 7.64-6.293 8.637-7.355 1.13-1.204.482-1.8.482-1.8l-2.324-2.908c2.551-1.246 4.297-2.873 4.297-2.873 11.355-3.183 8.318-10.635 8.318-10.635-2.342 4.962-5.862 5.218-5.862 5.218 1.308-5.978 2.652-7.255 2.652-7.255-11.945 1.856-6.905 10.531-6.905 10.531l-1.001 1.225a22.708 22.708 0 01-3.212 1.577l-.01-.463 2.293-1.95a.929.929 0 00.317-.812.868.868 0 00-.493-.692l-2.665-1.223a25.617 25.617 0 00-.16-.744l1.892-2.371a.923.923 0 00.16-.858.843.843 0 00-.615-.576l-2.862-.657a24.154 24.154 0 00-.296-.686l1.423-2.705a.921.921 0 00-.004-.87.836.836 0 00-.715-.439l-2.942-.06a24.652 24.652 0 00-.42-.613l.892-2.93a.905.905 0 00-.167-.848.828.828 0 00-.787-.284l-2.904.535a29.765 29.765 0 00-.533-.519l.326-3.035a.89.89 0 00-.325-.794.827.827 0 00-.828-.118l-2.757 1.108a25.266 25.266 0 00-.626-.4l-.25-3.026a.868.868 0 00-.469-.712.84.84 0 00-.837.053l-2.512 1.644c-.226-.09-.454-.176-.683-.26l-.818-2.914a.852.852 0 00-.596-.599z" clip-rule="nonzero" color="#000" fill="#f74c00" paint-order="stroke markers fill"/><g stroke="#000" stroke-width=".378"><path d="M737.05 99.428s3.028-1.935 4.682 1.255c0 0 .923 3.91-1.374 5.126 0 0-3.65 1.586-4.682-1.254 0 0-1.502-2.418 1.374-5.127"/><path d="M739.51 101.1c-.268.998-1.073 1.65-1.799 1.455-.725-.194-1.097-1.16-.83-2.159.268-.998 1.073-1.65 1.799-1.455.725.195 1.097 1.161.83 2.16" fill="#fff"/><path d="M726.79 95.93s4.492-.703 4.524 3.56c0 0-.091 4.932-4.606 4.002 0 0-5.376-2.61.082-7.563"/></g></g><path d="M771.58 104.3c-.25-.147-.279-.174-.275-.255.014-.32-.064-.604-.215-.774-.13-.145-.454-.33-.62-.35-.19-.025-.455.036-.655.152l-.177.102-.403-.234-.404-.233-.002-.208c-.004-.384-.129-.639-.403-.822-.348-.234-.724-.249-1.08-.043l-.19.11-.406-.238-.405-.237.01-.122c.016-.186-.075-.54-.176-.682-.202-.283-.633-.46-.962-.396a1.39 1.39 0 00-.36.14l-.174.105-.395-.23a15.72 15.72 0 00-.41-.233c-.007-.002-.008-.061-.002-.131.016-.19-.075-.544-.176-.687-.202-.283-.633-.46-.962-.396a1.35 1.35 0 00-.36.14l-.175.105-.395-.23c-.217-.126-.4-.23-.406-.232a.458.458 0 01.003-.142c.054-.515-.282-.943-.82-1.047-.265-.051-.421-.022-.655.122l-.178.11-.272-.154a3.03 3.03 0 01-.303-.186c-.02-.021.04-.153.194-.42l.223-.39.143.013c.199.018.496-.06.663-.174.16-.11.326-.367.389-.605.057-.214.006-.483-.133-.702l-.111-.174.235-.41.236-.41.136.013c.199.02.475-.055.665-.182.417-.278.536-.875.262-1.314l-.108-.172.238-.41.238-.411.145.018a.946.946 0 00.589-.134.982.982 0 00.32-1.355l-.108-.171.232-.398c.127-.22.252-.405.277-.413a.294.294 0 01.129.007c.129.034.446-.045.61-.151.18-.116.348-.371.412-.623.056-.223.015-.443-.129-.702l-.106-.19.172-.298c.095-.165.2-.34.232-.392l.059-.092.202.12.312.183c.101.059.108.075.09.22-.026.2.038.436.17.63.283.41.842.53 1.292.274l.199-.113.34.192c.49.276.465.25.456.467-.033.788.796 1.266 1.492.862l.176-.103.406.235.405.235v.218c.002.41.181.713.524.885a.937.937 0 00.961-.039l.174-.104.418.238.418.237-.02.157c-.026.196.091.576.218.71.113.118.383.286.52.323.217.058.459.02.7-.107l.236-.124.413.237.412.236-.018.145a.923.923 0 00.43.891c.367.231.637.243 1.013.044l.234-.123.285.166c.156.09.287.17.29.174a.833.833 0 01-.082.158c-.05.08-.153.258-.23.394l-.142.246-.14-.015a.985.985 0 00-.898.433c-.224.358-.229.74-.014 1.072l.101.156-.21.368c-.257.446-.28.47-.392.441-.134-.035-.437.033-.61.138a.979.979 0 00-.437.573c-.07.25-.038.469.11.748l.11.205-.228.398-.227.399-.208.002c-.508.004-.852.256-.975.715a.9.9 0 00.093.74l.12.208-.231.408-.231.407-.187-.01c-.23-.015-.316.006-.543.125a.677.677 0 00-.299.286c-.175.278-.214.457-.158.726a1.3 1.3 0 00.14.371l.095.147-.23.396c-.125.218-.237.393-.247.389a12.54 12.54 0 01-.299-.172zm-.336-2.236c.068-.01.12-.058.188-.167.147-.237 3.921-6.773 4.074-7.055.12-.223.134-.263.114-.352-.025-.11.586.25-7.377-4.347-1.09-.63-2.052-1.17-2.139-1.204-.107-.041-.181-.051-.23-.032-.052.021-.603.951-2.086 3.52a916.21 916.21 0 00-2.13 3.7c-.151.278-.144.364.041.496.078.054 1.586.934 3.352 1.954a4358.5 4358.5 0 014.6 2.66c.765.444 1.415.815 1.445.825s.097.011.148.002z" fill="#fff" paint-order="markers stroke fill"/><path d="M728.35 98.186c-.276 1.029-1.106 1.701-1.854 1.5-.748-.2-1.132-1.197-.856-2.226.276-1.03 1.106-1.702 1.854-1.501.749.2 1.132 1.197.856 2.227" fill="#fff" fill-rule="nonzero" stroke="#000" stroke-width=".378"/><path d="M729.61 106l5.23.961s-.394.778-1.228 1.218c0 0-2.278 1.46-3.738-1.174 0 0-.552-1.077-.264-1.005" fill-rule="nonzero" stroke="#000" stroke-width=".378"/><path d="M766.52 98.978c-2.767-1.6-4.527-2.66-4.512-2.719.021-.081 3.934-6.898 3.98-6.935.026-.02 9.162 5.266 9.191 5.317.043.075-3.959 6.962-4.044 6.961-.043 0-2.12-1.181-4.615-2.624z" fill="#fff" paint-order="markers stroke fill"/><path d="M758.74 97.237l.025.101.585.338c.544.314.592.339.681.324.07-.008.12-.046.188-.132.212-.278.6-.263.772.031a.524.524 0 01.008.464.24.24 0 00-.012.17l.025.102.674.39c.49.279.69.384.735.379a.34.34 0 00.23-.164c.098-.17.398-.23.591-.118.188.108.288.406.193.571a.332.332 0 00-.026.28c.032.083 1.354.846 1.442.833a.339.339 0 00.23-.163c.098-.17.397-.23.59-.119.194.112.292.402.193.572a.336.336 0 00-.026.28c.018.042.21.163.703.448.494.285.694.39.74.385a.339.339 0 00.23-.163c.097-.17.397-.23.59-.119.188.109.288.407.193.571-.05.087-.06.2-.026.281.018.042.209.163.703.448s.694.39.739.385a.339.339 0 00.23-.163c.098-.17.398-.23.591-.119.193.112.29.401.193.571a.339.339 0 00-.027.281c.016.04.189.15.605.394l.583.337.1-.03.102-.024.393-.682.394-.682-.03-.1a.24.24 0 00-.1-.146.561.561 0 01-.227-.41.456.456 0 01.416-.442.697.697 0 01.228.045c.09.03.171.036.232.015.1-.033.107-.046.484-.7l.386-.668-.032-.12c-.025-.084-.058-.134-.12-.17-.27-.156-.258-.58.017-.756a.56.56 0 01.474-.006.24.24 0 00.173.013l.102-.024.393-.682.394-.682-.03-.1a.24.24 0 00-.097-.144.562.562 0 01-.232-.413c.014-.326.376-.549.645-.393.063.036.123.04.208.019l.12-.032.386-.669c.377-.653.385-.666.364-.769a.367.367 0 00-.13-.193.687.687 0 01-.152-.175.456.456 0 01.175-.581.56.56 0 01.468-.009.24.24 0 00.177.015l.101-.025.788-1.364-.03-.1-.025-.102-.582-.336c-.42-.239-.602-.333-.644-.327a.34.34 0 00-.23.164c-.098.17-.398.23-.591.118-.19-.11-.291-.4-.194-.568.06-.105.066-.223.01-.3-.068-.096-1.344-.829-1.425-.816a.34.34 0 00-.23.163c-.098.17-.397.23-.59.119-.194-.112-.291-.402-.193-.571.05-.087.059-.2.026-.281-.018-.042-.21-.163-.703-.448-.494-.285-.694-.39-.74-.385a.34.34 0 00-.23.163c-.097.17-.397.23-.59.119-.194-.112-.291-.401-.193-.571.05-.087.06-.2.026-.281-.033-.082-1.355-.845-1.442-.833a.34.34 0 00-.23.164c-.098.17-.398.23-.59.118-.194-.111-.292-.401-.194-.57a.34.34 0 00.027-.282c-.018-.041-.21-.162-.696-.447l-.674-.39-.1.03a.24.24 0 00-.143.096.517.517 0 01-.414.228c-.34-.015-.538-.336-.405-.656.041-.102.049-.163.02-.228-.03-.085-.076-.115-.62-.428l-.585-.338-.1.029-.102.025-.394.682-.393.682.029.1a.24.24 0 00.1.145.564.564 0 01.227.41.456.456 0 01-.415.443.697.697 0 01-.229-.045.387.387 0 00-.234-.017c-.097.035-.104.048-.481.701l-.386.669.032.12c.024.083.058.134.12.17.27.155.258.58-.018.756a.561.561 0 01-.473.005.24.24 0 00-.174-.013l-.101.025-.788 1.364.03.1a.24.24 0 00.098.144c.12.07.236.279.232.412-.014.327-.376.55-.646.394-.062-.036-.123-.04-.208-.02l-.12.033-.386.669c-.376.653-.384.666-.366.767.015.064.06.132.132.194.062.05.13.131.153.176.1.2.022.462-.176.581a.56.56 0 01-.468.009.241.241 0 00-.176-.015l-.102.025-.393.682-.394.682zm1.166-.94c.198.02.449-.04.623-.149.126-.08.165-.124.283-.328.122-.211.136-.252.139-.421a.949.949 0 00-.186-.588l-.088-.113.482-.836.154.022c.332.042.725-.156.898-.457.183-.316.166-.74-.04-1.016l-.097-.132.24-.416.24-.415.163.018c.349.041.715-.152.9-.473.173-.3.147-.744-.058-1.01l-.092-.118.242-.418.24-.418.143.019a.951.951 0 00.603-.133c.144-.087.173-.12.295-.33.118-.205.136-.26.142-.41a1.073 1.073 0 00-.182-.614l-.086-.116.232-.402.234-.405.648.374-.025.08c-.032.12-.003.385.066.536a.95.95 0 001.418.38l.116-.086.41.236.41.237-.017.168c-.016.203.044.443.165.62.125.188.464.384.69.399.206.015.46-.058.624-.172l.132-.095.418.241.418.242-.017.167a1.02 1.02 0 00.164.621c.125.188.465.384.69.398.207.016.461-.057.625-.172l.131-.094.42.242.422.243-.024.143c-.027.18.047.463.163.641.128.189.465.384.692.4.207.015.462-.058.625-.172l.132-.095.42.243.421.243-.023.143c-.027.18.046.462.163.64.128.19.465.384.692.4.207.016.462-.057.625-.171l.132-.095.305.176.309.178-.234.405-.233.402-.143-.016c-.198-.02-.449.04-.623.149-.126.08-.165.124-.283.328-.122.211-.135.252-.139.421a.95.95 0 00.187.588l.087.114-.482.836-.156-.02c-.456-.062-.924.291-1.02.765-.04.2.037.538.164.705l.097.133-.24.416-.24.415-.163-.018a1.043 1.043 0 00-.703.221c-.362.32-.423.891-.135 1.267l.088.113-.242.418-.241.418-.142-.02a.95.95 0 00-.603.133c-.144.088-.173.12-.295.331-.118.204-.136.26-.142.41-.007.204.066.452.182.613l.086.116-.232.402-.234.405-.309-.178-.305-.176.016-.161a1.045 1.045 0 00-.165-.625c-.126-.191-.463-.386-.688-.4-.209-.013-.504.07-.64.18l-.111.089-.421-.243-.42-.243.016-.161a1.05 1.05 0 00-.164-.627c-.07-.107-.13-.155-.31-.26-.18-.104-.252-.13-.38-.139a1.052 1.052 0 00-.625.172l-.131.095-.836-.482.016-.162a1.045 1.045 0 00-.165-.624c-.126-.192-.463-.386-.688-.401a1.053 1.053 0 00-.625.172l-.132.095-.417-.242-.418-.241.016-.161a1.046 1.046 0 00-.165-.625c-.127-.191-.464-.386-.688-.4a1.052 1.052 0 00-.626.171l-.131.095-.407-.235-.41-.237.013-.18c.014-.2-.047-.42-.164-.61-.064-.1-.12-.15-.3-.254-.19-.11-.248-.13-.413-.14a.929.929 0 00-.61.18l-.112.088-.322-.185-.318-.184.233-.405.233-.403z"/><path d="M761.57 96.461l.026.104 9.548 5.512.102-.03.104-.025 2.14-3.708 2.14-3.707-.029-.103-.025-.103-4.774-2.756-4.774-2.757-.102.03-.104.026-2.14 3.707-2.141 3.708zm8.986-4.39l4.478 2.585-3.94 6.824-4.478-2.585-4.478-2.586 1.97-3.411 1.97-3.412z"/><g clip-rule="nonzero" fill-rule="nonzero" color="#000" paint-order="stroke markers fill"><path d="M771.5 95.003a.5.5 0 00-.609.262c-1.13 2.396-2.518 3.615-3.608 4.25-1.09.637-1.837.682-1.837.682a.5.5 0 00-.42.292l.456.207.351.435c.334-.054.997-.193 1.954-.751 1.044-.61 2.287-1.687 3.373-3.507a6.36 6.36 0 01-.197 2.589c-.568 1.946-2.29 4.253-7.013 5.823l-1.076.963c-.175.387-.122.46.287.346 5.786-1.622 8.052-4.421 8.762-6.852.71-2.43-.116-4.453-.116-4.453a.5.5 0 00-.307-.286z"/><path d="M765.48 100.7s3.52-.256 5.862-5.218c0 0 3.037 7.452-8.318 10.635z" fill="#f74c00"/><path d="M761.81 83.074a5 5 0 00-5.205 4.1c-4.721 26.076-14.97 41.435-23.856 50.401-8.885 8.967-15.98 11.336-15.98 11.336a5 5 0 00-3.293 3.907l4.934.816 4.523 3.297c3.085-1.39 9.122-4.448 16.92-12.316 8.514-8.592 17.727-22.211 23.508-42.602 2.594 6.339 5.03 15.075 4.799 25.514-.451 20.274-11.103 47.01-52.668 74.402-6.785 10.385-6.785 10.385-7.9 12.086-.692 4.192.01 4.765 3.665 2.6 51.696-30.643 66.338-63.55 66.9-88.866.563-25.316-12.648-42.707-12.648-42.707a5 5 0 00-3.699-1.968z"/><path d="M718.41 153.63s33.34-11.58 43.116-65.57c0 0 48.63 64.116-52.818 124.25l9.703-58.68z" fill="#f74c00"/></g></svg>